<svg version="1.1" id="Capa_1" xmlns="http://www.w3.org/2000/svg" xmlns:xlink="http://www.w3.org/1999/xlink" x="0px" y="0px"
	 viewBox="0 0 1200 1200" enable-background="new 0 0 1200 1200" xml:space="preserve">
<path d="M1123.962,754.688L928.23,591.806l195.18-144.497c4.141-3.066,5.96-8.371,4.568-13.334
	c-1.391-4.961-5.705-8.547-10.837-9.013l-251.877-22.785l67.446-241.823c1.391-4.984-0.455-10.305-4.629-13.36
	c-4.18-3.054-9.81-3.197-14.136-0.362l-215.897,141.48L611.622,58.05C609.803,53.207,605.174,50,600,50
	c-5.175,0-9.804,3.207-11.623,8.05l-84.069,223.784L289.601,144.629c-4.308-2.753-9.864-2.586-13.999,0.427
	c-4.132,3.012-5.996,8.249-4.696,13.193l63.853,242.812L82.804,424.968c-5.017,0.476-9.252,3.939-10.71,8.764
	c-1.461,4.826,0.139,10.055,4.053,13.234l182.659,148.407L75.913,751.674c-3.814,3.259-5.29,8.488-3.747,13.26
	c1.54,4.772,5.802,8.146,10.801,8.555l233.206,19.108l-47.292,249.038c-0.915,4.826,1.1,9.74,5.141,12.532
	c2.119,1.464,4.587,2.201,7.057,2.201c2.243,0,4.493-0.606,6.484-1.828l210.717-129.071l89.099,216.835
	c1.907,4.638,6.415,7.673,11.429,7.697c0.021,0,0.039,0,0.058,0c4.993,0,9.501-2.989,11.441-7.591l91.467-216.908l210.661,129.038
	c1.995,1.222,4.241,1.828,6.484,1.828c2.562,0,5.117-0.791,7.282-2.359c4.062-2.943,5.957-8.036,4.802-12.917l-59.601-251.947
	l245.251-12.513c5.105-0.261,9.531-3.626,11.147-8.479C1129.415,763.303,1127.893,757.958,1123.962,754.688z M872.488,602.175
	c-1.464-69.922-29.294-133.469-73.926-181.096l45.825,4.145c0.464,0.193,0.911,0.411,1.407,0.55
	c1.116,0.311,2.237,0.459,3.341,0.459c0.92,0,1.816-0.138,2.695-0.336l212.454,19.218l-176.917,43.517
	c-4.162,1.025-6.709,5.228-5.684,9.39c0.87,3.539,4.041,5.908,7.53,5.908c0.612,0,1.237-0.073,1.858-0.226l171.355-42.149
	L872.488,602.175z M843.846,780.538c0.002,0.005,0.002,0.009,0.003,0.014l50.586,213.838l-98.749-144.433
	c-2.419-3.538-7.251-4.441-10.786-2.025c-3.538,2.419-4.444,7.248-2.025,10.786l102.742,150.273L703.061,897.169
	c-0.104-0.072-0.219-0.13-0.326-0.2l-38.176-23.384c72.758-17.964,134.139-65.111,170.954-128.271L843.846,780.538z
	 M313.732,1009.387l93.108-140.046c2.374-3.568,1.404-8.385-2.167-10.759c-3.568-2.377-8.385-1.404-10.759,2.167l-91.559,137.716
	l51.22-269.726c35.508,71.871,101.663,125.994,181.293,145.196L313.732,1009.387z M127.543,456.726l214.961,56.129
	c-11.029,29.643-17.07,61.692-17.07,95.128c0,3.242,0.077,6.465,0.189,9.68L127.543,456.726z M400.671,419.751
	c-21.677,22.829-39.453,49.39-52.281,78.598l-206.848-54.01L400.671,419.751z M350.267,607.983
	c0-137.151,111.579-248.732,248.732-248.732c137.15,0,248.729,111.581,248.729,248.732c0,137.15-111.579,248.729-248.729,248.729
	C461.846,856.712,350.267,745.132,350.267,607.983z M877.801,200.008L770.119,336.725c-2.653,3.366-2.073,8.247,1.294,10.898
	c1.422,1.122,3.116,1.664,4.796,1.664c2.298,0,4.571-1.014,6.102-2.959l112.63-143l-54.823,196.574l-71.6-6.477
	c-12.794-10.13-26.515-19.136-41.007-26.881l-20.513-54.606L877.801,200.008z M680.33,311.561c0.003,0.007,0.005,0.015,0.008,0.022
	l15.191,40.439c-28.01-10.599-58.192-16.741-89.686-17.518l1.53-217.149L680.33,311.561z M591.837,119.455l-1.515,215.114
	c-29.957,0.938-58.718,6.704-85.519,16.564l17.32-46.107c0.009-0.023,0.018-0.046,0.027-0.069L591.837,119.455z M307.858,201.129
	l106.788,141.851c1.525,2.027,3.85,3.094,6.205,3.094c1.625,0,3.265-0.508,4.662-1.561c3.423-2.577,4.111-7.442,1.531-10.866
	L323.01,195.451l172.37,110.151l-22.399,59.624c-14.671,7.647-28.566,16.583-41.534,26.66l-71.637,6.797L307.858,201.129z
	 M129.953,752.422l153.813-56.76c4.023-1.485,6.078-5.948,4.596-9.967c-1.485-4.023-5.957-6.078-9.967-4.596l-143.743,53.044
	L278.4,611.293l50.668,41.167c1.834,11.167,4.345,22.108,7.492,32.78l-15.728,82.823L129.953,752.422z M604.853,1091.427
	l0.746-162.982c0.018-4.286-3.438-7.776-7.724-7.797c-0.012,0-0.024,0-0.036,0c-4.271,0-7.742,3.453-7.761,7.724l-0.702,153.444
	l-69.643-169.488l52.409-32.102c8.838,0.865,17.795,1.319,26.857,1.319c9.651,0,19.185-0.51,28.581-1.49l52.773,32.326
	L604.853,1091.427z M852.729,710.212c9.682-23.943,16.067-49.554,18.594-76.276l36.362-26.92l155.458,129.365l-160.179-59.294
	c-4.011-1.479-8.482,0.561-9.974,4.584c-1.488,4.02,0.564,8.485,4.584,9.974l169.273,62.66l-201.258,10.268L852.729,710.212z"/>
</svg>